<svg width="19" height="19" viewBox="0 0 19 19" fill="none" xmlns="http://www.w3.org/2000/svg">
<path d="M11.0833 5.54165C12.1764 5.54165 13.0625 4.65554 13.0625 3.56248C13.0625 2.46942 12.1764 1.58331 11.0833 1.58331C9.99023 1.58331 9.10413 2.46942 9.10413 3.56248C9.10413 4.65554 9.99023 5.54165 11.0833 5.54165Z" fill="#FF9800"/>
<path d="M11.4792 10.8063L7.83752 9.18336C7.44169 8.98544 7.24377 9.57919 7.04585 9.97502C6.84794 10.3709 5.42294 12.825 5.54169 13.2604C5.66044 13.6167 5.9771 13.8146 6.29377 13.8146C6.37294 13.8146 6.4521 13.8146 6.53127 13.775L11.4 12.2709C11.7167 12.1917 11.9542 11.875 11.9542 11.5584C11.9542 11.2417 11.7563 10.925 11.4792 10.8063Z" fill="#00796B"/>
<path d="M10.6083 6.01664L9.73744 5.62081C9.22286 5.38331 8.58953 5.62081 8.35203 6.13539L3.64161 16.2687C3.44369 16.6646 3.64161 17.1396 4.03744 17.3375C4.15619 17.3771 4.27494 17.4166 4.39369 17.4166C4.71036 17.4166 4.98744 17.2583 5.10619 16.9812C5.10619 16.9812 8.90619 11.7166 9.22286 11.0833C9.53952 10.45 11.1624 7.40206 11.1624 7.40206C11.3604 6.88747 11.1624 6.25414 10.6083 6.01664Z" fill="#009688"/>
<path d="M16.0312 6.2146C15.7542 5.89794 15.2396 5.81877 14.9229 6.09585L12.9438 7.75835L10.4104 6.37294C9.975 6.13544 9.38125 6.2146 9.10417 6.72919C8.7875 7.24377 8.94583 7.8771 9.42083 8.07502L12.7062 9.42085C12.825 9.46044 12.9438 9.50002 13.0625 9.50002C13.2604 9.50002 13.4187 9.42085 13.5771 9.3021L15.9521 7.32294C16.2688 7.04585 16.3083 6.57085 16.0312 6.2146ZM4.63125 9.14377L5.97708 7.12502L7.79792 7.36252L8.39167 6.13544C8.55 5.77919 8.86667 5.58127 9.22292 5.54169H5.58125C5.30417 5.54169 5.06667 5.66044 4.90833 5.89794L3.325 8.27294C3.0875 8.62919 3.16667 9.14377 3.5625 9.38127C3.64167 9.46044 3.8 9.50002 3.95833 9.50002C4.19583 9.50002 4.47292 9.38127 4.63125 9.14377Z" fill="#FF9800"/>
</svg>
