<svg width="24" height="24" viewBox="0 0 24 24" fill="none" xmlns="http://www.w3.org/2000/svg">
<g clip-path="url(#clip0_0_2965)">
<path d="M23.7773 17.0273L17.25 23.5664L14.0977 20.4023L15.1523 19.3477L17.25 21.4336L22.7227 15.9727L23.7773 17.0273ZM12 4.5V10.5H16.5V12H10.5V4.5H12ZM11.25 21C11.375 21 11.5 20.9961 11.625 20.9883C11.75 20.9805 11.875 20.9727 12 20.9648L13.3359 22.3008C12.9844 22.3633 12.6367 22.4102 12.293 22.4414C11.9492 22.4727 11.6016 22.4922 11.25 22.5C10.2188 22.5 9.22656 22.3672 8.27344 22.1016C7.32031 21.8359 6.42188 21.457 5.57812 20.9648C4.73438 20.4727 3.97656 19.8867 3.30469 19.207C2.63281 18.5273 2.04688 17.7656 1.54688 16.9219C1.04688 16.0781 0.667969 15.1836 0.410156 14.2383C0.152344 13.293 0.015625 12.2969 0 11.25C0 10.2188 0.132812 9.22656 0.398438 8.27344C0.664062 7.32031 1.04297 6.42188 1.53516 5.57812C2.02734 4.73438 2.61328 3.97656 3.29297 3.30469C3.97266 2.63281 4.73438 2.04688 5.57812 1.54688C6.42188 1.04688 7.31641 0.667969 8.26172 0.410156C9.20703 0.152344 10.2031 0.015625 11.25 0C12.2812 0 13.2734 0.132812 14.2266 0.398438C15.1797 0.664062 16.0781 1.04297 16.9219 1.53516C17.7656 2.02734 18.5234 2.61328 19.1953 3.29297C19.8672 3.97266 20.4531 4.73438 20.9531 5.57812C21.4531 6.42188 21.832 7.31641 22.0898 8.26172C22.3477 9.20703 22.4844 10.2031 22.5 11.25C22.5 11.6406 22.4766 12.0352 22.4297 12.4336L20.4609 14.4141C20.8203 13.375 21 12.3203 21 11.25C21 10.3516 20.8828 9.48828 20.6484 8.66016C20.4141 7.83203 20.0859 7.05859 19.6641 6.33984C19.2422 5.62109 18.7344 4.96094 18.1406 4.35938C17.5469 3.75781 16.8906 3.25 16.1719 2.83594C15.4531 2.42188 14.6758 2.09375 13.8398 1.85156C13.0039 1.60938 12.1406 1.49219 11.25 1.5C10.3516 1.5 9.48828 1.61719 8.66016 1.85156C7.83203 2.08594 7.05859 2.41406 6.33984 2.83594C5.62109 3.25781 4.96094 3.76562 4.35938 4.35938C3.75781 4.95312 3.25 5.60938 2.83594 6.32812C2.42188 7.04688 2.09375 7.82422 1.85156 8.66016C1.60938 9.49609 1.49219 10.3594 1.5 11.25C1.5 12.1484 1.61719 13.0117 1.85156 13.8398C2.08594 14.668 2.41406 15.4414 2.83594 16.1602C3.25781 16.8789 3.76562 17.5391 4.35938 18.1406C4.95312 18.7422 5.60938 19.25 6.32812 19.6641C7.04688 20.0781 7.82422 20.4062 8.66016 20.6484C9.49609 20.8906 10.3594 21.0078 11.25 21Z" fill="white"/>
</g>
<defs>
<clipPath id="clip0_0_2965">
<rect width="24" height="24" fill="white"/>
</clipPath>
</defs>
</svg>
