<svg width="16" height="16" viewBox="0 0 16 16" fill="none" xmlns="http://www.w3.org/2000/svg">
<path fill-rule="evenodd" clip-rule="evenodd" d="M8.00004 0.833313C4.04204 0.833313 0.833374 4.04198 0.833374 7.99998C0.833374 11.958 4.04204 15.1666 8.00004 15.1666C11.958 15.1666 15.1667 11.958 15.1667 7.99998C15.1667 4.04198 11.958 0.833313 8.00004 0.833313ZM8.50004 3.99998C8.50004 3.86737 8.44736 3.74019 8.35359 3.64643C8.25983 3.55266 8.13265 3.49998 8.00004 3.49998C7.86743 3.49998 7.74026 3.55266 7.64649 3.64643C7.55272 3.74019 7.50004 3.86737 7.50004 3.99998V7.99998C7.50004 8.27598 7.72404 8.49998 8.00004 8.49998H12C12.1326 8.49998 12.2598 8.4473 12.3536 8.35353C12.4474 8.25976 12.5 8.13259 12.5 7.99998C12.5 7.86737 12.4474 7.74019 12.3536 7.64643C12.2598 7.55266 12.1326 7.49998 12 7.49998H8.50004V3.99998Z" fill="#6A3D86"/>
</svg>
