<svg width="24" height="24" viewBox="0 0 24 24" fill="none" xmlns="http://www.w3.org/2000/svg">
<path d="M21 19.577V5.115C21 4.93567 20.9423 4.78833 20.827 4.673C20.7117 4.55767 20.5643 4.5 20.385 4.5H3.615C3.43567 4.5 3.28833 4.55767 3.173 4.673C3.05767 4.78833 3 4.93567 3 5.115V12.5H2V5.115C2 4.671 2.15833 4.291 2.475 3.975C2.791 3.65833 3.171 3.5 3.615 3.5H20.385C20.829 3.5 21.209 3.65833 21.525 3.975C21.8417 4.291 22 4.671 22 5.115V18.212C22 18.5307 21.9067 18.8153 21.72 19.066C21.5333 19.3167 21.2933 19.4877 21 19.577ZM9 13.385C8.17467 13.385 7.46833 13.091 6.881 12.503C6.29367 11.915 6 11.209 6 10.385C6 9.55967 6.29367 8.853 6.881 8.265C7.46833 7.67833 8.17467 7.385 9 7.385C9.82533 7.385 10.5317 7.67833 11.119 8.265C11.7063 8.853 12 9.55967 12 10.385C12 11.2097 11.7063 11.9157 11.119 12.503C10.5317 13.0903 9.82533 13.3843 9 13.385ZM9 12.385C9.55 12.385 10.021 12.189 10.413 11.797C10.805 11.405 11.0007 10.9343 11 10.385C11 9.835 10.804 9.364 10.412 8.972C10.02 8.58 9.54933 8.38433 9 8.385C8.45 8.385 7.979 8.58067 7.587 8.972C7.195 9.36333 6.99933 9.83433 7 10.385C7 10.935 7.196 11.4057 7.588 11.797C7.98 12.1883 8.45067 12.3843 9 12.385ZM2 20.615V18.97C2 18.5573 2.12 18.1713 2.36 17.812C2.60067 17.452 2.924 17.1727 3.33 16.974C4.274 16.5213 5.21833 16.182 6.163 15.956C7.10833 15.7293 8.054 15.616 9 15.616C9.94667 15.616 10.8923 15.7293 11.837 15.956C12.7817 16.1827 13.7257 16.522 14.669 16.974C15.0757 17.1727 15.399 17.452 15.639 17.812C15.8797 18.1713 16 18.5573 16 18.97V20.616L2 20.615ZM3 19.615H15V18.969C15 18.7477 14.9287 18.5393 14.786 18.344C14.6427 18.1493 14.4447 17.9847 14.192 17.85C13.3693 17.4513 12.5207 17.146 11.646 16.934C10.7727 16.7213 9.89067 16.615 9 16.615C8.11 16.615 7.228 16.7213 6.354 16.934C5.47933 17.146 4.63067 17.4513 3.808 17.85C3.55467 17.9847 3.35667 18.1493 3.214 18.344C3.07133 18.5393 3 18.748 3 18.97V19.615Z" fill="#606060"/>
</svg>
