<svg width="24" height="24" viewBox="0 0 24 24" fill="none" xmlns="http://www.w3.org/2000/svg">
<path d="M12.2 13L11.3 13.9C11.1167 14.0833 11.025 14.3167 11.025 14.6C11.025 14.8833 11.1167 15.1167 11.3 15.3C11.4833 15.4833 11.7167 15.575 12 15.575C12.2833 15.575 12.5167 15.4833 12.7 15.3L15.3 12.7C15.5 12.5 15.6 12.2667 15.6 12C15.6 11.7333 15.5 11.5 15.3 11.3L12.7 8.7C12.5167 8.51667 12.2833 8.425 12 8.425C11.7167 8.425 11.4833 8.51667 11.3 8.7C11.1167 8.88333 11.025 9.11666 11.025 9.4C11.025 9.68333 11.1167 9.91667 11.3 10.1L12.2 11L9 11C8.71667 11 8.47933 11.096 8.288 11.288C8.09667 11.48 8.00067 11.7173 8 12C7.99933 12.2827 8.09533 12.52 8.288 12.712C8.48067 12.904 8.718 13 9 13L12.2 13ZM22 12C22 13.3833 21.7373 14.6833 21.212 15.9C20.6867 17.1167 19.9743 18.175 19.075 19.075C18.1757 19.975 17.1173 20.6873 15.9 21.212C14.6827 21.7367 13.3827 21.9993 12 22C10.6173 22.0007 9.31733 21.738 8.1 21.212C6.88267 20.686 5.82433 19.9737 4.925 19.075C4.02567 18.1763 3.31333 17.118 2.788 15.9C2.26267 14.682 2 13.382 2 12C2 10.618 2.26267 9.318 2.788 8.1C3.31333 6.882 4.02567 5.82366 4.925 4.925C5.82433 4.02633 6.88267 3.31367 8.1 2.787C9.31733 2.26033 10.6173 1.998 12 2C13.3827 2.002 14.6827 2.26467 15.9 2.788C17.1173 3.31133 18.1757 4.02366 19.075 4.925C19.9743 5.82633 20.687 6.88467 21.213 8.1C21.739 9.31533 22.0013 10.6153 22 12Z" fill="#072FBE"/>
</svg>
