<svg width="924" height="84" viewBox="0 0 924 84" fill="none" xmlns="http://www.w3.org/2000/svg">
<mask id="path-1-inside-1_0_2534" fill="white">
<path d="M916 0C920.418 0 924 3.58172 924 8V76C924 80.4183 920.418 84 916 84H8C3.58172 84 8.05365e-08 80.4183 0 76V69.6377C0.331502 69.6496 0.664683 69.6582 0.999023 69.6582C16.4461 69.658 28.9688 56.8166 28.9688 40.9756C28.9687 25.1346 16.4461 12.2931 0.999023 12.293C0.664695 12.293 0.331491 12.3006 0 12.3125V8C0 3.58172 3.58172 0 8 0H916Z"/>
</mask>
<path d="M916 0C920.418 0 924 3.58172 924 8V76C924 80.4183 920.418 84 916 84H8C3.58172 84 8.05365e-08 80.4183 0 76V69.6377C0.331502 69.6496 0.664683 69.6582 0.999023 69.6582C16.4461 69.658 28.9688 56.8166 28.9688 40.9756C28.9687 25.1346 16.4461 12.2931 0.999023 12.293C0.664695 12.293 0.331491 12.3006 0 12.3125V8C0 3.58172 3.58172 0 8 0H916Z" fill="#FFE6E7"/>
<path d="M924 8H925H924ZM0 76H-1H0ZM0 69.6377L0.0359703 68.6383C-0.23531 68.6286 -0.498903 68.7295 -0.694273 68.918C-0.889643 69.1064 -1 69.3662 -1 69.6377H0ZM0.999023 69.6582V70.6582H0.999035L0.999023 69.6582ZM28.9688 40.9756H29.9688H28.9688ZM0.999023 12.293L0.999035 11.293H0.999023V12.293ZM0 12.3125H-1C-1 12.584 -0.889643 12.8437 -0.694273 13.0322C-0.498904 13.2207 -0.235311 13.3216 0.035969 13.3119L0 12.3125ZM916 0V1C919.866 1 923 4.13401 923 8H924H925C925 3.02944 920.971 -1 916 -1V0ZM924 8H923V76H924H925V8H924ZM924 76H923C923 79.866 919.866 83 916 83V84V85C920.971 85 925 80.9706 925 76H924ZM916 84V83H8V84V85H916V84ZM8 84V83C4.13401 83 1 79.866 1 76H0H-1C-1 80.9706 3.02944 85 8 85V84ZM0 76H1V69.6377H0H-1V76H0ZM0 69.6377L-0.0359703 70.637C0.301856 70.6492 0.648117 70.6582 0.999023 70.6582V69.6582V68.6582C0.681249 68.6582 0.361149 68.65 0.0359703 68.6383L0 69.6377ZM0.999023 69.6582L0.999035 70.6582C17.022 70.658 29.9688 57.345 29.9688 40.9756H28.9688H27.9688C27.9688 56.2882 15.8703 68.658 0.999012 68.6582L0.999023 69.6582ZM28.9688 40.9756H29.9688C29.9687 24.6061 17.022 11.2931 0.999035 11.293L0.999023 12.293L0.999012 13.293C15.8703 13.2931 27.9687 25.663 27.9688 40.9756H28.9688ZM0.999023 12.293V11.293C0.649746 11.293 0.304134 11.3009 -0.035969 11.3131L0 12.3125L0.035969 13.3119C0.358848 13.3002 0.679645 13.293 0.999023 13.293V12.293ZM0 12.3125H1V8H0H-1V12.3125H0ZM0 8H1C1 4.13401 4.13401 1 8 1V0V-1C3.02944 -1 -1 3.02944 -1 8H0ZM8 0V1H916V0V-1H8V0Z" fill="#ECB1B4" mask="url(#path-1-inside-1_0_2534)"/>
</svg>
