<svg width="16" height="16" viewBox="0 0 16 16" fill="none" xmlns="http://www.w3.org/2000/svg">
<path opacity="0.5" d="M14.6667 6.66671H1.33337V12.6667C1.33337 13.1971 1.54409 13.7058 1.91916 14.0809C2.29423 14.456 2.80294 14.6667 3.33337 14.6667H12.6667C13.1971 14.6667 13.7058 14.456 14.0809 14.0809C14.456 13.7058 14.6667 13.1971 14.6667 12.6667V6.66671ZM4.66671 5.33337C4.4899 5.33337 4.32033 5.26314 4.1953 5.13811C4.07028 5.01309 4.00004 4.84352 4.00004 4.66671V2.00004C4.00004 1.82323 4.07028 1.65366 4.1953 1.52864C4.32033 1.40361 4.4899 1.33337 4.66671 1.33337C4.84352 1.33337 5.01309 1.40361 5.13811 1.52864C5.26314 1.65366 5.33337 1.82323 5.33337 2.00004V4.66671C5.33337 4.84352 5.26314 5.01309 5.13811 5.13811C5.01309 5.26314 4.84352 5.33337 4.66671 5.33337ZM11.3334 5.33337C11.1566 5.33337 10.987 5.26314 10.862 5.13811C10.7369 5.01309 10.6667 4.84352 10.6667 4.66671V2.00004C10.6667 1.82323 10.7369 1.65366 10.862 1.52864C10.987 1.40361 11.1566 1.33337 11.3334 1.33337C11.5102 1.33337 11.6798 1.40361 11.8048 1.52864C11.9298 1.65366 12 1.82323 12 2.00004V4.66671C12 4.84352 11.9298 5.01309 11.8048 5.13811C11.6798 5.26314 11.5102 5.33337 11.3334 5.33337Z" fill="#6A3D86"/>
<path d="M12.6667 2.66663H12V4.66663C12 4.84344 11.9298 5.01301 11.8048 5.13803C11.6798 5.26305 11.5102 5.33329 11.3334 5.33329C11.1566 5.33329 10.987 5.26305 10.862 5.13803C10.7369 5.01301 10.6667 4.84344 10.6667 4.66663V2.66663H5.33337V4.66663C5.33337 4.84344 5.26314 5.01301 5.13811 5.13803C5.01309 5.26305 4.84352 5.33329 4.66671 5.33329C4.4899 5.33329 4.32033 5.26305 4.1953 5.13803C4.07028 5.01301 4.00004 4.84344 4.00004 4.66663V2.66663H3.33337C2.80294 2.66663 2.29423 2.87734 1.91916 3.25241C1.54409 3.62749 1.33337 4.13619 1.33337 4.66663V6.66663H14.6667V4.66663C14.6667 4.13619 14.456 3.62749 14.0809 3.25241C13.7058 2.87734 13.1971 2.66663 12.6667 2.66663Z" fill="#6A3D86"/>
</svg>
