<svg width="16" height="16" viewBox="0 0 16 16" fill="none" xmlns="http://www.w3.org/2000/svg">
<path opacity="0.5" d="M14.6667 6.66665H1.33337V12.6666C1.33337 13.1971 1.54409 13.7058 1.91916 14.0809C2.29423 14.4559 2.80294 14.6666 3.33337 14.6666H12.6667C13.1971 14.6666 13.7058 14.4559 14.0809 14.0809C14.456 13.7058 14.6667 13.1971 14.6667 12.6666V6.66665ZM4.66671 5.33331C4.4899 5.33331 4.32033 5.26308 4.1953 5.13805C4.07028 5.01303 4.00004 4.84346 4.00004 4.66665V1.99998C4.00004 1.82317 4.07028 1.6536 4.1953 1.52858C4.32033 1.40355 4.4899 1.33331 4.66671 1.33331C4.84352 1.33331 5.01309 1.40355 5.13811 1.52858C5.26314 1.6536 5.33337 1.82317 5.33337 1.99998V4.66665C5.33337 4.84346 5.26314 5.01303 5.13811 5.13805C5.01309 5.26308 4.84352 5.33331 4.66671 5.33331ZM11.3334 5.33331C11.1566 5.33331 10.987 5.26308 10.862 5.13805C10.7369 5.01303 10.6667 4.84346 10.6667 4.66665V1.99998C10.6667 1.82317 10.7369 1.6536 10.862 1.52858C10.987 1.40355 11.1566 1.33331 11.3334 1.33331C11.5102 1.33331 11.6798 1.40355 11.8048 1.52858C11.9298 1.6536 12 1.82317 12 1.99998V4.66665C12 4.84346 11.9298 5.01303 11.8048 5.13805C11.6798 5.26308 11.5102 5.33331 11.3334 5.33331Z" fill="#6A3D86"/>
<path d="M12.6667 2.66669H12V4.66669C12 4.8435 11.9298 5.01307 11.8048 5.13809C11.6798 5.26312 11.5102 5.33335 11.3334 5.33335C11.1566 5.33335 10.987 5.26312 10.862 5.13809C10.7369 5.01307 10.6667 4.8435 10.6667 4.66669V2.66669H5.33337V4.66669C5.33337 4.8435 5.26314 5.01307 5.13811 5.13809C5.01309 5.26312 4.84352 5.33335 4.66671 5.33335C4.4899 5.33335 4.32033 5.26312 4.1953 5.13809C4.07028 5.01307 4.00004 4.8435 4.00004 4.66669V2.66669H3.33337C2.80294 2.66669 2.29423 2.8774 1.91916 3.25247C1.54409 3.62755 1.33337 4.13625 1.33337 4.66669V6.66669H14.6667V4.66669C14.6667 4.13625 14.456 3.62755 14.0809 3.25247C13.7058 2.8774 13.1971 2.66669 12.6667 2.66669Z" fill="#6A3D86"/>
</svg>
